<?xml version="1.0" encoding="utf-8"?>
<!-- Generator: Adobe Illustrator 16.0.4, SVG Export Plug-In . SVG Version: 6.00 Build 0)  -->
<!DOCTYPE svg PUBLIC "-//W3C//DTD SVG 1.1//EN" "http://www.w3.org/Graphics/SVG/1.1/DTD/svg11.dtd">
<svg version="1.1" id="Capa_1" xmlns="http://www.w3.org/2000/svg" xmlns:xlink="http://www.w3.org/1999/xlink" x="0px" y="0px"
	 width="468.859px" height="468.859px" viewBox="0 0 468.859 468.859" enable-background="new 0 0 468.859 468.859"
	 xml:space="preserve">
<g>
	<path fill="#FFFFFF" d="M235.555,0C109.784,0,3.532,102.367,3.532,223.536c0,68.313,33.927,149.905,86.43,207.865l1.484,1.639
		l2.164-0.429c0.553-0.101,12.578-2.638,17.603-11.834c12.317,10.095,23.253,11.085,34.757,6.961
		c5.115,9.843,7.103,20.559-6.606,24.444c-12.906,3.676-30.152-1.094-42.886-3.024c-21.219-3.222-66.178-4.156-87.61-3.358
		c-10.092,0.381-10.128,16.082,0,15.701c25.874-0.958,74.494,1.606,100.092,5.241c12.808,1.82,29.16,4.341,41.437-1.623
		c21.209-10.303,17.637-27.875,9.105-44.146c6.404-3.906,13.235-8.844,20.638-14.149c-20.528-9.018-47.406-49.354-65.764-84.528
		c-12.99-24.902-38.401-77.676-35.536-104.35c-15.867,10.896-28.212,20.386-34.91,32.837c-1.854-11.745-2.852-23.271-2.852-34.43
		c0-96.018,100.557-160.516,194.469-160.516c116.331,0,194.46,83,194.46,160.516c0,11.093-0.896,22.457-2.625,33.953
		c-6.744-12.219-18.987-21.612-34.651-32.359c2.868,26.674-22.537,79.447-35.533,104.35c-18.352,35.174-45.236,75.521-65.762,84.528
		c28.203,20.238,47.103,34.46,72.188,11.085c5.133,7.975,14.463,12.158,14.939,12.358l2.601,1.117l1.884-2.114
		c51.359-57.744,84.528-138.494,84.528-205.742C467.575,102.357,361.322,0,235.555,0z"/>
	<path fill="#FFFFFF" d="M93.646,209.917c-0.99,0-1.863,0.232-2.673,0.589c-0.287,0.126-0.601,0.218-0.87,0.391
		c-11.407,7.468,3.939,55.427,31.244,107.755c24.917,47.753,53.217,82.209,66.652,82.209c0.25,0,0.475-0.072,0.713-0.093
		c0.988-0.107,1.923-0.353,2.725-0.878c0.878-0.581,1.569-1.479,2.166-2.527c0.03-0.062,0.062-0.146,0.092-0.204
		c6.885-12.788-5.973-57.491-31.038-105.532C137.771,243.93,107.46,209.909,93.646,209.917z"/>
	<path fill="#FFFFFF" d="M350.25,318.652c27.303-52.329,42.647-100.296,31.242-107.756c-0.27-0.172-0.585-0.265-0.874-0.391
		c-0.806-0.356-1.679-0.589-2.669-0.589c-13.807,0-44.126,34.014-69.012,81.709c-25.062,48.049-37.926,92.756-31.041,105.536
		c0.03,0.062,0.066,0.14,0.1,0.2c0.589,1.058,1.286,1.964,2.16,2.527c0.82,0.537,1.771,0.799,2.785,0.891
		c0.213,0.023,0.42,0.093,0.656,0.093C297.023,400.873,325.328,366.404,350.25,318.652z"/>
	<path fill="#FFFFFF" d="M247.695,93.629c-8.11-1.381-14.74,4.59-14.74,12.818v84.997c-4.795-1.759-9.959-2.771-15.371-2.771
		c-24.697,0-44.715,20.019-44.715,44.721c0,24.693,20.018,44.711,44.715,44.711c18.098,0,33.662-10.748,40.691-26.205
		c3.414-7.481,3.902-20.99,3.936-29.212c0.092-26.299,0.092-78.205,0.092-78.205c57.771,0,54.31,34.622,47.545,54.505
		c-2.646,7.789-1.069,9.091,4.496,3.032C384.842,125.226,286.682,100.264,247.695,93.629z"/>
</g>
</svg>
